<svg width="110" height="110" viewBox="0 0 110 110" fill="none" xmlns="http://www.w3.org/2000/svg">
<g clip-path="url(#clip0_151_739)">
<path d="M41.7777 34.6853C37.2266 34.6853 34.951 35.6524 34.951 37.5867C34.951 39.0658 35.8612 41.9102 37.6817 46.12L54.407 84.008C57.479 76.6124 60.039 70.184 62.087 64.7227C64.2488 59.1476 65.671 55.4498 66.3537 53.6293C68.0603 49.4196 69.0843 46.8027 69.4257 45.7787C69.8808 44.6409 70.3928 43.2756 70.9617 41.6827C71.5306 39.976 71.815 38.4969 71.815 37.2453C71.815 36.4489 70.9048 35.8231 69.0843 35.368C66.5812 34.9129 64.4763 34.6853 62.7697 34.6853C62.5421 34.2302 62.4283 33.4907 62.4283 32.4667C62.4283 31.4427 62.5421 30.76 62.7697 30.4187C69.3688 30.9876 73.863 31.272 76.2523 31.272C78.6417 31.272 80.7466 31.1582 82.567 30.9307C84.3874 30.7031 86.4354 30.5324 88.711 30.4187C88.9386 30.76 89.0523 31.4427 89.0523 32.4667C89.1661 33.4907 89.0523 34.2302 88.711 34.6853C84.3874 34.6853 81.7706 35.3111 80.8603 36.5627C79.7226 38.1556 78.1866 41.2844 76.2523 45.9493L52.871 101.587C52.4159 102.611 51.5626 103.635 50.311 104.659C49.1732 105.683 48.263 106.195 47.5803 106.195C47.0114 106.195 46.6701 106.024 46.5563 105.683C46.4426 105.455 46.2719 105.114 46.0443 104.659L21.4683 47.4853C20.7857 45.8924 20.103 44.2427 19.4203 42.536C18.7377 40.8293 18.055 39.3502 17.3723 38.0987C16.8034 36.7333 15.5519 35.8231 13.6177 35.368C11.7972 34.9129 10.5457 34.6853 9.863 34.6853C9.52167 34.2302 9.40789 33.4907 9.52167 32.4667C9.52167 31.4427 9.63544 30.76 9.863 30.4187C15.2106 30.9876 20.5581 31.272 25.9057 31.272C30.7981 31.272 36.0888 30.9876 41.7777 30.4187C42.0052 30.76 42.119 31.4427 42.119 32.4667C42.119 33.4907 42.0052 34.2302 41.7777 34.6853Z" fill="#0D2581"/>
<path d="M87.2277 3.80852L85.8673 24.3961L106.37 22.0861L89.4258 33.8586L104.015 48.448L84.2465 42.5405L81.9363 63.0433L74.2294 43.9042L56.7593 54.8813L66.9177 36.9228L47.443 30.1083L67.8172 26.8534L61.0027 7.37873L76.2505 21.2785L87.2277 3.80852Z" fill="#0D2581"/>
</g>
<defs>
<clipPath id="clip0_151_739">
<rect width="110" height="110" fill="white"/>
</clipPath>
</defs>
</svg>
